<?xml version="1.0" encoding="utf-8"?>
<!-- Generator: Adobe Illustrator 16.0.0, SVG Export Plug-In . SVG Version: 6.00 Build 0)  -->
<!DOCTYPE svg PUBLIC "-//W3C//DTD SVG 1.1//EN" "http://www.w3.org/Graphics/SVG/1.1/DTD/svg11.dtd">
<svg version="1.1" id="Layer_1" xmlns="http://www.w3.org/2000/svg" xmlns:xlink="http://www.w3.org/1999/xlink" x="0px" y="0px"
	 width="24px" height="24px" viewBox="0 0 24 24" enable-background="new 0 0 24 24" xml:space="preserve">
<g>
	<linearGradient id="SVGID_1_" gradientUnits="userSpaceOnUse" x1="11.9995" y1="0" x2="11.9995" y2="24.0005">
		<stop  offset="0" style="stop-color:#29ABE2"/>
		<stop  offset="0.4757" style="stop-color:#28A9E1"/>
		<stop  offset="0.6639" style="stop-color:#23A2DC"/>
		<stop  offset="0.8012" style="stop-color:#1A96D4"/>
		<stop  offset="0.913" style="stop-color:#0E85C9"/>
		<stop  offset="1" style="stop-color:#0071BC"/>
	</linearGradient>
	<path fill="url(#SVGID_1_)" d="M24,19c0,2.75-2.25,5-5,5H5c-2.75,0-5-2.25-5-5V5c0-2.75,2.25-5,5-5h14c2.75,0,5,2.25,5,5V19z"/>
	<path fill="#FFFFFF" d="M21,18c0,1.65-1.35,3-3,3H6c-1.65,0-3-1.35-3-3V6c0-1.65,1.35-3,3-3h12c1.65,0,3,1.35,3,3V18z"/>
	<g>
		<path fill="#4D4D4D" d="M19,6v12h-6v-3h3V9h-3V6H19z"/>
	</g>
	<g>
		<path fill="#4D4D4D" d="M11,6v3H8v6h3v3H5V6H11z"/>
	</g>
</g>
</svg>