<?xml version="1.0" encoding="utf-8"?>
<svg xmlns="http://www.w3.org/2000/svg"
	xmlns:xlink="http://www.w3.org/1999/xlink"
	width="15px" height="15px">
<path fill="rgb(144,176,198)" fill-rule="evenodd" d="M12.00 15.00 C12.00 15.00 3.00 15.00 3.00 15.00 C1.34 15.00 0.00 13.66 0.00 12.00 C0.00 12.00 0.00 3.00 0.00 3.00 C0.00 1.34 1.34 0.00 3.00 0.00 C3.00 0.00 12.00 0.00 12.00 0.00 C13.66 0.00 15.00 1.34 15.00 3.00 C15.00 3.00 15.00 12.00 15.00 12.00 C15.00 13.66 13.66 15.00 12.00 15.00 Z M13.13 2.87 C13.13 2.32 12.67 1.88 12.13 1.88 C12.13 1.88 2.87 1.88 2.87 1.88 C2.32 1.88 1.88 2.33 1.88 2.87 C1.88 2.87 1.88 12.13 1.88 12.13 C1.88 12.68 2.33 13.13 2.87 13.13 C2.87 13.13 12.13 13.13 12.13 13.13 C12.68 13.13 13.13 12.67 13.13 12.13 C13.13 12.13 13.13 2.87 13.13 2.87 Z M8.00 10.00 C8.00 10.00 10.00 10.00 10.00 10.00 C10.00 10.00 10.00 5.00 10.00 5.00 C10.00 5.00 8.00 5.00 8.00 5.00 C8.00 5.00 8.00 3.00 8.00 3.00 C8.00 3.00 12.00 3.00 12.00 3.00 C12.00 3.00 12.00 12.00 12.00 12.00 C12.00 12.00 8.00 12.00 8.00 12.00 C8.00 12.00 8.00 10.00 8.00 10.00 Z M3.00 3.00 C3.00 3.00 7.00 3.00 7.00 3.00 C7.00 3.00 7.00 5.00 7.00 5.00 C7.00 5.00 5.00 5.00 5.00 5.00 C5.00 5.00 5.00 10.00 5.00 10.00 C5.00 10.00 7.00 10.00 7.00 10.00 C7.00 10.00 7.00 12.00 7.00 12.00 C7.00 12.00 3.00 12.00 3.00 12.00 C3.00 12.00 3.00 3.00 3.00 3.00 Z"/>
</svg>