<svg
xmlns="http://www.w3.org/2000/svg"
xmlns:xlink="http://www.w3.org/1999/xlink"
width="50px" height="50px">
    <defs>
        <style><![CDATA[
            .sprite { display: none; }
            .sprite:target { display: inline; }
        ]]></style>
    </defs>
    <g id="graphics" stroke="none" stroke-width="1" fill="none" fill-rule="evenodd">
        <g class="sprite" id="inline-editor">
            <rect id="app" fill="#2098F5" x="0" y="0" width="50" height="50" rx="2"></rect>
            <rect id="editor" fill="#FFFFFF" x="12" y="4" width="34" height="42"></rect>
            <rect fill="#98D2FF" x="12" y="19" width="34" height="12"></rect>
        </g>
        <g class="sprite" id="live-preview">
            <rect id="browser" fill="#2098F5" x="0" y="0" width="50" height="50" rx="2"></rect>
            <rect id="view-port" fill="#FFFFFF" x="4" y="11" width="42" height="35"></rect>
            <rect id="bar" fill="#FFFFFF" x="5" y="4" width="33" height="3"></rect>
            <circle id="-button" fill="#FFFFFF" cx="43.5" cy="5.5" r="1.5"></circle>
            <path d="M28.5,27.5 L22.5,23.5 L14.5,33.5 L22.5,28.5 L28.5,32.5 L36.5,22.5 L28.5,27.5 L28.5,27.5 Z" id="bolt" fill="#98D2FF"></path>
        </g>
        <g class="sprite" id="preprocessors">
            <rect id="scss-box" fill="#2098F5" x="0" y="0" width="50" height="23" rx="2"></rect>
            <rect id="less-box" fill="#98D2FF" x="0" y="27" width="50" height="23" rx="2"></rect>
            <path d="M13.3482346,14.2094134 C13.9317628,14.7835299 14.7317612,15.1129409 15.5599948,15.1129409 C16.9435214,15.1129409 17.771755,14.2847073 17.771755,13.2870623 C17.771755,12.3929465 17.2635208,11.9317709 16.5294046,11.6211833 L15.701171,11.2729487 C15.1929367,11.0658903 14.7223495,10.8870672 14.7223495,10.4070681 C14.7223495,9.95530434 15.0988193,9.68236372 15.6823475,9.68236372 C16.2094053,9.68236372 16.6329338,9.88001038 17.0188154,10.2094215 L17.5835201,9.5129523 C17.1035211,9.03295327 16.4070519,8.73177741 15.6823475,8.73177741 C14.4870558,8.73177741 13.6211752,9.48471706 13.6211752,10.4635386 C13.6211752,11.3670662 14.2517622,11.8470652 14.8635256,12.1011823 L15.701171,12.4682404 C16.2658757,12.7035341 16.6611691,12.8635337 16.6611691,13.371768 C16.6611691,13.851767 16.2752875,14.1623546 15.58823,14.1623546 C15.0141136,14.1623546 14.4211736,13.8800023 13.9788215,13.4658855 L13.3482346,14.2094134 Z M19.5435182,11.9411827 C19.5435182,13.9835315 20.7764569,15.1129409 22.3388066,15.1129409 C23.1199815,15.1129409 23.7599802,14.7929416 24.2588027,14.2188251 L23.656451,13.5505912 C23.3082164,13.9364727 22.9035114,14.1623546 22.3576301,14.1623546 C21.3317498,14.1623546 20.6635159,13.3152975 20.6635159,11.9129474 C20.6635159,10.5294208 21.3882203,9.68236372 22.3952771,9.68236372 C22.8658644,9.68236372 23.214099,9.88001038 23.5340983,10.190598 L24.13645,9.5129523 C23.7505685,9.09883549 23.138805,8.73177741 22.3858654,8.73177741 C20.8046921,8.73177741 19.5435182,9.9270691 19.5435182,11.9411827 L19.5435182,11.9411827 Z M25.5976256,14.2094134 C26.1811538,14.7835299 26.9811522,15.1129409 27.8093858,15.1129409 C29.1929124,15.1129409 30.021146,14.2847073 30.021146,13.2870623 C30.021146,12.3929465 29.5129118,11.9317709 28.7787956,11.6211833 L27.950562,11.2729487 C27.4423277,11.0658903 26.9717404,10.8870672 26.9717404,10.4070681 C26.9717404,9.95530434 27.3482103,9.68236372 27.9317385,9.68236372 C28.4587963,9.68236372 28.8823248,9.88001038 29.2682064,10.2094215 L29.8329111,9.5129523 C29.3529121,9.03295327 28.6564429,8.73177741 27.9317385,8.73177741 C26.7364468,8.73177741 25.8705662,9.48471706 25.8705662,10.4635386 C25.8705662,11.3670662 26.5011532,11.8470652 27.1129166,12.1011823 L27.950562,12.4682404 C28.5152667,12.7035341 28.91056,12.8635337 28.91056,13.371768 C28.91056,13.851767 28.5246785,14.1623546 27.837621,14.1623546 C27.2635046,14.1623546 26.6705646,13.8800023 26.2282125,13.4658855 L25.5976256,14.2094134 Z M31.5482038,14.2094134 C32.131732,14.7835299 32.9317304,15.1129409 33.759964,15.1129409 C35.1434906,15.1129409 35.9717242,14.2847073 35.9717242,13.2870623 C35.9717242,12.3929465 35.46349,11.9317709 34.7293738,11.6211833 L33.9011402,11.2729487 C33.3929059,11.0658903 32.9223186,10.8870672 32.9223186,10.4070681 C32.9223186,9.95530434 33.2987885,9.68236372 33.8823167,9.68236372 C34.4093745,9.68236372 34.832903,9.88001038 35.2187846,10.2094215 L35.7834893,9.5129523 C35.3034903,9.03295327 34.6070211,8.73177741 33.8823167,8.73177741 C32.687025,8.73177741 31.8211444,9.48471706 31.8211444,10.4635386 C31.8211444,11.3670662 32.4517314,11.8470652 33.0634948,12.1011823 L33.9011402,12.4682404 C34.4658449,12.7035341 34.8611382,12.8635337 34.8611382,13.371768 C34.8611382,13.851767 34.4752567,14.1623546 33.7881992,14.1623546 C33.2140828,14.1623546 32.6211428,13.8800023 32.1787907,13.4658855 L31.5482038,14.2094134 Z" id="SCSS" fill="#FFFFFF"></path>
            <path d="M14.3697631,42 L18.0121087,42 L18.0121087,41.0776489 L15.4615256,41.0776489 L15.4615256,35.8447184 L14.3697631,35.8447184 L14.3697631,42 Z M20.0662242,42 L23.8591577,42 L23.8591577,41.0776489 L21.1579867,41.0776489 L21.1579867,39.261182 L23.3697469,39.261182 L23.3697469,38.3388309 L21.1579867,38.3388309 L21.1579867,36.7670694 L23.7650402,36.7670694 L23.7650402,35.8447184 L20.0662242,35.8447184 L20.0662242,42 Z M25.6685678,41.2094134 C26.2520961,41.7835299 27.0520944,42.1129409 27.8803281,42.1129409 C29.2638547,42.1129409 30.0920883,41.2847073 30.0920883,40.2870623 C30.0920883,39.3929465 29.583854,38.9317709 28.8497379,38.6211833 L28.0215042,38.2729487 C27.51327,38.0658903 27.0426827,37.8870672 27.0426827,37.4070681 C27.0426827,36.9553043 27.4191525,36.6823637 28.0026807,36.6823637 C28.5297385,36.6823637 28.9532671,36.8800104 29.3391486,37.2094215 L29.9038534,36.5129523 C29.4238543,36.0329533 28.7273852,35.7317774 28.0026807,35.7317774 C26.807389,35.7317774 25.9415085,36.4847171 25.9415085,37.4635386 C25.9415085,38.3670662 26.5720954,38.8470652 27.1838589,39.1011823 L28.0215042,39.4682404 C28.586209,39.7035341 28.9815023,39.8635337 28.9815023,40.371768 C28.9815023,40.851767 28.5956207,41.1623546 27.9085633,41.1623546 C27.3344468,41.1623546 26.7415068,40.8800023 26.2991548,40.4658855 L25.6685678,41.2094134 Z M31.619146,41.2094134 C32.2026743,41.7835299 33.0026726,42.1129409 33.8309063,42.1129409 C35.2144329,42.1129409 36.0426665,41.2847073 36.0426665,40.2870623 C36.0426665,39.3929465 35.5344322,38.9317709 34.8003161,38.6211833 L33.9720824,38.2729487 C33.4638482,38.0658903 32.9932609,37.8870672 32.9932609,37.4070681 C32.9932609,36.9553043 33.3697307,36.6823637 33.9532589,36.6823637 C34.4803167,36.6823637 34.9038453,36.8800104 35.2897268,37.2094215 L35.8544316,36.5129523 C35.3744325,36.0329533 34.6779634,35.7317774 33.9532589,35.7317774 C32.7579673,35.7317774 31.8920867,36.4847171 31.8920867,37.4635386 C31.8920867,38.3670662 32.5226736,38.8470652 33.1344371,39.1011823 L33.9720824,39.4682404 C34.5367872,39.7035341 34.9320805,39.8635337 34.9320805,40.371768 C34.9320805,40.851767 34.5461989,41.1623546 33.8591415,41.1623546 C33.285025,41.1623546 32.692085,40.8800023 32.249733,40.4658855 L31.619146,41.2094134 Z" id="LESS" fill="#FFFFFF"></path>
        </g>
    </g>
</svg>