<?xml version="1.0" encoding="utf-8"?>
<!-- Generator: Adobe Illustrator 15.0.0, SVG Export Plug-In . SVG Version: 6.00 Build 0)  -->
<!DOCTYPE svg PUBLIC "-//W3C//DTD SVG 1.1//EN" "http://www.w3.org/Graphics/SVG/1.1/DTD/svg11.dtd">
<svg version="1.1" id="Layer_2" xmlns="http://www.w3.org/2000/svg" xmlns:xlink="http://www.w3.org/1999/xlink" x="0px" y="0px"
	 width="40px" height="40px" viewBox="0 0 40 40" enable-background="new 0 0 40 40" xml:space="preserve">
<g>
	<rect x="7.169" y="26.092" fill="none" width="3.335" height="3.334"/>
	<rect x="7.169" y="16.813" fill="none" width="3.335" height="3.334"/>
	<path fill="none" d="M3.11,36.093h33.778V11.159H3.11V36.093z M14.708,15.073h6.668v2.135h-6.668V15.073z M14.708,19.752h20.137
		v2.136H14.708V19.752z M14.708,24.352h6.668v2.135h-6.668V24.352z M14.708,29.03h20.137v2.135H14.708V29.03z M5.43,15.073h6.814
		v6.814H5.43V15.073z M12.244,24.352v6.813H5.43v-6.813H12.244z"/>
	<path fill="none" d="M3.11,3.908v5.511h33.778V3.908H3.11z M7.238,7.81H4.814V5.387h2.423V7.81z M11.644,7.81H9.22V5.387h2.423
		V7.81z M32.422,7.81V5.387h2.424V7.81H32.422z"/>
	<path fill="#2098F5" d="M1.371,2.168v7.251v1.74v26.673h37.258V11.159v-1.74V2.168H1.371z M36.889,36.093H3.11V11.159h33.778
		V36.093z M3.11,9.419V3.908h33.778v5.511H3.11z"/>
	<path fill="#2098F5" d="M12.244,15.073H5.43v6.814h6.814V15.073z M10.504,20.147H7.169v-3.334h3.335V20.147z"/>
	<path fill="#2098F5" d="M12.244,31.165v-6.813H5.43v6.813H12.244z M7.169,26.092h3.335v3.334H7.169V26.092z"/>
	<rect x="14.708" y="15.073" fill="#2098F5" width="6.668" height="2.135"/>
	<rect x="14.708" y="19.752" fill="#2098F5" width="20.137" height="2.136"/>
	<rect x="14.708" y="24.352" fill="#2098F5" width="6.668" height="2.135"/>
	<rect x="14.708" y="29.03" fill="#2098F5" width="20.137" height="2.135"/>
	<rect x="4.814" y="5.387" fill="#2098F5" width="2.423" height="2.423"/>
	<rect x="9.22" y="5.387" fill="#2098F5" width="2.423" height="2.423"/>
	<rect x="32.422" y="5.387" fill="#2098F5" width="2.424" height="2.423"/>
</g>
</svg>
