<?xml version="1.0" encoding="utf-8"?>
<!-- Generator: Adobe Illustrator 15.0.0, SVG Export Plug-In . SVG Version: 6.00 Build 0)  -->
<!DOCTYPE svg PUBLIC "-//W3C//DTD SVG 1.1//EN" "http://www.w3.org/Graphics/SVG/1.1/DTD/svg11.dtd">
<svg version="1.1" id="Layer_1" xmlns="http://www.w3.org/2000/svg" xmlns:xlink="http://www.w3.org/1999/xlink" x="0px" y="0px"
	 width="40px" height="40px" viewBox="0 0 40 40" enable-background="new 0 0 40 40" xml:space="preserve">
<path fill="#2098F5" d="M29.455,2.955c-0.162,0-0.314,0.008-0.471,0.013c-2.801,0.246-6.447,1.873-7.686,8.322l5.602,5.658
	l-6.378,8.875l1.771-8.209l-7.428-5.325l2.21-7.17c-1.616-1.339-3.513-2.163-6.524-2.163c-5.721,0-9.561,3.88-9.561,9.662
	c0,3.581,1.702,7.254,4.784,10.335l13.642,13.847c0.151,0.155,0.365,0.246,0.587,0.246c0.217,0,0.427-0.091,0.583-0.246
	l13.637-13.844c3.09-3.084,4.787-6.757,4.787-10.338C39.01,6.835,35.172,2.955,29.455,2.955z"/>
</svg>
