<svg
xmlns="http://www.w3.org/2000/svg"
xmlns:xlink="http://www.w3.org/1999/xlink"
width="18px" height="94px">
    <g id="Page-1" stroke="none" stroke-width="1" fill="none" fill-rule="evenodd">
        <path d="M15.879,80.53 C16.642,80.03 17.227,79.239 17.503,78.295 C16.789,78.758 15.999,79.094 15.158,79.275 C14.484,78.491 13.524,78 12.462,78 C10.423,78 8.769,79.809 8.769,82.039 C8.769,82.356 8.802,82.664 8.865,82.96 C5.796,82.791 3.075,81.183 1.253,78.739 C0.935,79.336 0.753,80.03 0.753,80.77 C0.753,82.171 1.405,83.408 2.396,84.132 C1.791,84.111 1.221,83.929 0.723,83.627 L0.723,83.678 C0.723,85.635 1.996,87.267 3.685,87.638 C3.376,87.731 3.049,87.78 2.712,87.78 C2.474,87.78 2.243,87.755 2.018,87.708 C2.488,89.312 3.851,90.48 5.467,90.513 C4.204,91.596 2.611,92.242 0.881,92.242 C0.583,92.242 0.289,92.223 0,92.185 C1.634,93.331 3.576,94 5.661,94 C12.454,94 16.168,87.845 16.168,82.508 C16.168,82.333 16.165,82.158 16.157,81.985 C16.879,81.416 17.505,80.704 18,79.894 C17.338,80.215 16.626,80.432 15.879,80.53 Z" id="twitter" fill="#000000"></path>
        <path d="M3.17985937,63.141 C3.19885938,63.094 3.26885937,63.081 3.33485938,63.112 C3.39985938,63.142 3.43685938,63.205 3.41485937,63.251 C3.39485937,63.297 3.32385938,63.311 3.25985938,63.28 C3.19485938,63.249 3.15785938,63.187 3.17985937,63.141 L3.17985937,63.141 Z M3.59485937,63.626 C3.53585937,63.561 3.52485938,63.475 3.56885938,63.434 C3.61285938,63.393 3.69485938,63.412 3.75385938,63.477 C3.81285937,63.542 3.82385938,63.627 3.77885938,63.668 C3.73585937,63.709 3.65185937,63.69 3.59485937,63.626 L3.59485937,63.626 Z M3.93285938,64.12 C3.87785938,64.038 3.87785938,63.94 3.93385938,63.9 C3.98985938,63.861 4.07885938,63.896 4.13485937,63.978 C4.18985938,64.061 4.18985938,64.16 4.13385938,64.2 C4.07885938,64.239 3.98885938,64.202 3.93285938,64.12 L3.93285938,64.12 Z M4.38885938,64.678 C4.30985938,64.604 4.28785938,64.498 4.33785937,64.442 C4.38785937,64.387 4.49285938,64.402 4.57085938,64.478 C4.64885937,64.552 4.67285937,64.658 4.61985937,64.714 C4.57085938,64.769 4.46585937,64.754 4.38885938,64.678 L4.38885938,64.678 Z M4.91785937,64.897 C4.93885937,64.824 5.04085938,64.79 5.14385937,64.823 C5.24485937,64.854 5.31185938,64.938 5.29085938,65.012 C5.26885937,65.084 5.16785937,65.117 5.06585937,65.086 C4.96385938,65.055 4.89785938,64.97 4.91785937,64.897 L4.91785937,64.897 Z M5.64085937,65.074 C5.64085937,64.997 5.72485938,64.934 5.83285937,64.932 C5.93985938,64.93 6.02685937,64.991 6.02685937,65.067 C6.02985938,65.143 5.94285938,65.206 5.83585938,65.208 C5.72885937,65.21 5.64185938,65.148 5.64085937,65.074 L5.64085937,65.074 Z M6.32985937,65.018 C6.31685937,64.942 6.39285937,64.866 6.49685937,64.846 C6.60385937,64.827 6.69885937,64.872 6.71285937,64.947 C6.72585937,65.022 6.65085937,65.098 6.54485937,65.118 C6.43985938,65.138 6.34385938,65.092 6.32985937,65.018 L6.32985937,65.018 Z M11.8558594,67.986 C11.3998594,68.077 11.2378594,67.789 11.2378594,67.543 C11.2378594,67.239 11.2478594,66.245 11.2478594,65.01 C11.2478594,64.149 10.9608594,63.588 10.6378594,63.301 C12.6418594,63.073 14.7468594,62.292 14.7468594,58.747 C14.7468594,57.74 14.3978594,56.916 13.8208594,56.27 C13.9138594,56.037 14.2228594,55.099 13.7328594,53.827 C13.7328594,53.827 12.9778594,53.579 11.2598594,54.773 C10.5408594,54.569 9.77085938,54.466 9.00585938,54.463 C8.24085937,54.466 7.47085938,54.569 6.75285937,54.773 C5.03285938,53.579 4.27785938,53.827 4.27785938,53.827 C3.78885937,55.099 4.09685938,56.037 4.18985938,56.27 C3.61485937,56.916 3.26285938,57.74 3.26285938,58.747 C3.26285938,62.284 5.36385937,63.075 7.36285938,63.308 C7.10585938,63.539 6.87285937,63.946 6.79185937,64.543 C6.27785938,64.779 4.97585937,65.187 4.17285937,63.776 C4.17285937,63.776 3.69685937,62.889 2.79385937,62.824 C2.79385937,62.824 1.91485938,62.813 2.73185937,63.386 C2.73185937,63.386 3.32185937,63.669 3.73085938,64.736 C3.73085938,64.736 4.25885938,66.383 6.76285937,65.825 C6.76685938,66.596 6.77485938,67.323 6.77485938,67.543 C6.77485938,67.787 6.60985938,68.073 6.16085938,67.987 C2.58485938,66.767 0.005859375,63.307 0.005859375,59.229 C0.005859375,54.132 4.03585938,50 9.00585938,50 C13.9758594,50 18.0048594,54.132 18.0048594,59.229 C18.0048594,63.306 15.4298594,66.764 11.8558594,67.986 L11.8558594,67.986 Z" id="github" fill="#000000"></path>
        <path d="M14.5,34 L1.5,34 C0.672,34 0,33.328 0,32.5 C0,31.672 0.672,31 1.5,31 L14.5,31 C15.328,31 16,31.672 16,32.5 C16,33.328 15.328,34 14.5,34 L14.5,34 Z M14.5,28 L1.5,28 C0.672,28 0,27.328 0,26.5 C0,25.672 0.672,25 1.5,25 L14.5,25 C15.328,25 16,25.672 16,26.5 C16,27.328 15.328,28 14.5,28 L14.5,28 Z M1.5,37 L14.5,37 C15.328,37 16,37.672 16,38.5 C16,39.328 15.328,40 14.5,40 L1.5,40 C0.672,40 0,39.328 0,38.5 C0,37.672 0.672,37 1.5,37 L1.5,37 Z" id="hamgburger" fill="#000000"></path>
        <path d="M3,15 C1.34,15 0,13.66 0,12 L0,3 C0,1.34 1.34,0 3,0 L12,0 C13.66,0 15,1.34 15,3 L15,12 C15,13.66 13.66,15 12,15 L3,15 Z M13,2.968 C13,2.43022222 12.5502222,2 12.0222222,2 L2.968,2 C2.43022222,2 2,2.44 2,2.968 L2,12.0222222 C2,12.56 2.44,13 2.968,13 L12.0222222,13 C12.56,13 13,12.5502222 13,12.0222222 L13,2.968 L13,2.968 Z M8,10 L10,10 L10,5 L8,5 L8,3 L12,3 L12,12 L8,12 L8,10 L8,10 Z M3,3 L7,3 L7,5 L5,5 L5,10 L7,10 L7,12 L3,12 L3,3 L3,3 Z" id="brackets" fill="#90B0C6"></path>
    </g>
</svg>
